<?xml version="1.0" encoding="UTF-8" standalone="no"?>
<svg 
   width="110px" 
   height="55px"
   version="1.1"
   viewBox="-3333.8465107499014 -1748.0960342407227 5258.96653180703 2616.576040649414"
   id="svg38"
   sodipodi:docname="logo.svg"
   inkscape:export-filename="logo66.svg"
   inkscape:export-xdpi="96"
   inkscape:export-ydpi="96"
   inkscape:version="1.2 (56b05e47e7, 2022-06-09, custom)"
   xmlns:inkscape="http://www.inkscape.org/namespaces/inkscape"
   xmlns:sodipodi="http://sodipodi.sourceforge.net/DTD/sodipodi-0.dtd"
   xmlns="http://www.w3.org/2000/svg"
   xmlns:svg="http://www.w3.org/2000/svg">
  <sodipodi:namedview
     id="namedview40"
     pagecolor="#ffffff"
     bordercolor="#666666"
     borderopacity="1.0"
     inkscape:showpageshadow="2"
     inkscape:pageopacity="0.0"
     inkscape:pagecheckerboard="0"
     inkscape:deskcolor="#d1d1d1"
     showgrid="false"
     inkscape:zoom="0.09019421"
     inkscape:cx="2627.6631"
     inkscape:cy="1308.288"
     inkscape:window-width="1366"
     inkscape:window-height="713"
     inkscape:window-x="0"
     inkscape:window-y="27"
     inkscape:window-maximized="1"
     inkscape:current-layer="svg38" />
  <desc
     id="desc18">Created with Snap</desc>
  <defs
     id="defs20" />
  <g
     id="g214">
    <g
       transform="matrix(30.5438,0,0,30.5438,-3131.1369,-1973.8546)"
       id="g28"
       style="fill:#ff0000">
      <path
         d="M 79.376,46.434 C 79.16,30.391 66.095,17.449 50,17.449 33.905,17.449 20.84,30.39 20.624,46.433 11.061,46.816 3.421,54.972 3.421,64.628 3.421,74.406 11.252,83 20.982,83 h 14 c 3.177,0 11.25,-5 11.25,-21 H 40.08 l 10,-12.277 10,12.277 h -6.348 c 0,17 7.931,21 11.25,21 h 14 c 9.747,0 17.597,-8.582 17.597,-18.371 0,-9.656 -7.641,-17.813 -17.203,-18.195 z"
         fill="#9c1f16"
         id="path22"
         style="fill:#ff0000" />
      <desc
         id="desc24">Created with Snap</desc>
      <defs
         id="defs26" />
    </g>
    <g
       id="g34"
       style="fill:#1a1a1a">
      <g
         transform="scale(1.024,-1.024)"
         id="g32"
         style="fill:#1a1a1a">
        <path
           d="m 864,432 q 23,0 33,-10 11,-10 11,-26 0,-26 -16,-46 -15,-20 -48,-21 -80,-2 -142,12 Q 631,192 530,93 430,-5 329,-5 225,-5 174,116 q -51,121 -51,327 0,176 25,316 9,52 25,70 17,19 57,19 66,0 66,-57 0,-6 -2,-22 -30,-180 -30,-326 0,-153 25,-233 26,-79 77,-79 52,0 113,72 61,72 112,181 -61,38 -92,98 -31,61 -31,140 0,79 24,133 25,55 67,82 43,27 95,27 64,0 101,-46 38,-46 38,-126 0,-115 -50,-251 53,-9 121,-9 z M 569,629 q 0,-98 63,-145 39,112 39,185 0,42 -11,61 -11,20 -30,20 -27,0 -44,-32 -17,-31 -17,-89 z M 1071,-5 q -58,0 -131,10 -40,5 -55,21 -15,16 -13,52 7,99 33,244 26,146 63,281 7,25 28,35 21,10 55,10 61,0 61,-34 0,-14 -6,-32 -26,-80 -52,-215 -26,-134 -37,-256 30,-3 68,-3 175,0 261,106 87,106 87,283 0,119 -68,184 -68,65 -192,65 -80,0 -159,-25 -78,-25 -141,-66 -13,-9 -28,-9 -17,0 -27,14 -10,15 -10,36 0,24 8,39 8,16 27,29 69,47 162,71 93,25 179,25 122,0 211,-43 89,-42 137,-124 48,-82 48,-198 0,-151 -60,-264 Q 1460,119 1345,57 1230,-5 1071,-5 Z"
           fill="#9c1f16"
           id="path30"
           style="fill:#1a1a1a" />
      </g>
    </g>
  </g>
</svg>
